<svg viewBox="0 0 378 182" fill="none" xmlns="http://www.w3.org/2000/svg">
<g clip-path="url(#clip0_3622_2987)">
<mask id="mask0_3622_2987" style="mask-type:luminance" maskUnits="userSpaceOnUse" x="144" y="20" width="90" height="90">
<path d="M188.99 109.595C213.6 109.595 233.551 89.6128 233.551 64.9632C233.551 40.3135 213.6 20.3311 188.99 20.3311C164.38 20.3311 144.43 40.3135 144.43 64.9632C144.43 89.6128 164.38 109.595 188.99 109.595Z" fill="white"/>
</mask>
<g mask="url(#mask0_3622_2987)">
<path d="M233.569 20.2197H143.047V110.887H233.569V20.2197Z" fill="#F68623"/>
<path d="M181.106 81.6008C180.976 81.6008 180.847 81.5269 180.811 81.3977L164.716 37.6889L148.086 23.7286C147.957 23.6179 147.939 23.4147 148.049 23.2855C148.16 23.1562 148.363 23.1377 148.492 23.2485L165.177 37.2642C165.177 37.2642 165.25 37.338 165.269 37.3934L181.401 81.1761C181.456 81.3423 181.382 81.5269 181.216 81.5823C181.179 81.5823 181.142 81.6008 181.106 81.6008Z" fill="white"/>
<path d="M196.089 94.509C195.96 94.509 195.831 94.4167 195.794 94.2874L184.29 60.5317C184.234 60.3655 184.326 60.1809 184.492 60.1255C184.658 60.0701 184.843 60.1624 184.898 60.3286L196.402 94.0843C196.457 94.2505 196.365 94.4351 196.199 94.4905C196.163 94.4905 196.126 94.4905 196.089 94.4905V94.509Z" fill="white"/>
<path d="M200.444 97.4634C200.315 97.4634 200.186 97.3895 200.149 97.2603L188.11 63.4677L177.38 55.4719C177.233 55.3611 177.214 55.158 177.306 55.0287C177.417 54.881 177.601 54.8625 177.749 54.9549L188.571 63.006C188.571 63.006 188.663 63.0983 188.682 63.1537L200.757 97.0387C200.813 97.2049 200.739 97.3895 200.573 97.4449C200.536 97.4449 200.499 97.4634 200.462 97.4634H200.444Z" fill="white"/>
<path d="M212.496 112.384C212.367 112.384 212.256 112.31 212.201 112.18L191.092 60.8821L174.149 45.8878C174.02 45.777 174.001 45.5739 174.112 45.4446C174.222 45.3154 174.425 45.2969 174.554 45.4077L191.571 60.4574C191.571 60.4574 191.645 60.5313 191.663 60.5682L212.791 111.94C212.865 112.107 212.791 112.291 212.625 112.365C212.588 112.365 212.551 112.384 212.496 112.384Z" fill="white"/>
<path d="M224.537 112.642C224.408 112.642 224.297 112.568 224.242 112.457L209.677 79.1633C209.603 78.9971 209.677 78.8125 209.843 78.7386C210.009 78.6647 210.193 78.7386 210.267 78.9048L224.832 112.199C224.905 112.365 224.832 112.55 224.666 112.624C224.629 112.624 224.574 112.642 224.537 112.642Z" fill="white"/>
<path d="M235.434 131.809C235.305 131.809 235.194 131.736 235.139 131.625L211.688 77.3904L197.086 65.3322C196.957 65.2214 196.939 65.0182 197.049 64.889C197.16 64.7597 197.363 64.7413 197.492 64.852L212.149 76.9472C212.149 76.9472 212.222 77.0211 212.241 77.058L235.729 131.366C235.802 131.532 235.729 131.717 235.563 131.791C235.526 131.791 235.47 131.809 235.434 131.809Z" fill="white"/>
<path d="M162.315 57.5024C162.168 57.5024 162.039 57.3916 162.002 57.2439L159.236 43.8561L149.908 36.7837C149.76 36.6729 149.742 36.4698 149.852 36.3405C149.963 36.1928 150.166 36.1743 150.295 36.2851L159.716 43.4314C159.716 43.4314 159.826 43.5422 159.826 43.6161L162.61 57.1146C162.647 57.2808 162.537 57.447 162.371 57.484C162.352 57.484 162.334 57.484 162.297 57.484L162.315 57.5024Z" fill="white"/>
<path d="M171.186 112.846C171.039 112.846 170.909 112.735 170.873 112.587L156.289 44.928C156.253 44.7803 156.345 44.6325 156.474 44.5587L159.405 43.3584C159.571 43.2845 159.755 43.3584 159.829 43.543C159.903 43.7092 159.829 43.8939 159.645 43.9678L156.972 45.0572L171.499 112.439C171.536 112.606 171.426 112.79 171.26 112.827C171.241 112.827 171.223 112.827 171.186 112.827V112.846Z" fill="white"/>
<path d="M167.461 0L234.256 29.4901V30.2841L171.886 1.93892L167.461 0Z" fill="white"/>
<path d="M233.648 92.7538L195.688 55.8589L174.634 38.0763L153.837 21.0692L152.694 20.2197H147.68L159.774 29.9143L164.641 34.0692L174.634 41.4371L186.322 51.9072L192.037 56.2467L199.32 62.9683L214.124 76.0237L228.947 90.4456L233.575 95.9853" fill="white"/>
<path d="M233.815 110.925L233.76 110.796L229.686 101.378L224.745 91.5911L220.578 82.1919L213.867 75.8027L222.919 94.4348L229.169 107.712L230.589 110.796L230.81 110.999" fill="white"/>
<path d="M195.926 59.7739L200.24 68.2867L205.126 78.7938L208.629 87.1034L213.22 98.2384L218.345 110.389L218.511 110.795L218.603 110.998H215.745L215.672 110.795L212.666 103.113L207.265 90.3534L202.397 78.406L196.737 65.646L191.594 55.8037" fill="white"/>
<path d="M171.311 38.4094L174.463 45.3156L177.081 51.6309L179.644 58.5741L182.778 67.0869L185.765 76.3753L189.655 87.1594L192.457 95.1551L195.13 103.631L197.638 110.796L197.712 110.999H193.729L193.656 110.796L191.849 105.459L187.903 92.9207L181.303 72.9406L176.123 57.9832L167.992 36.0088" fill="white"/>
<path d="M147.089 20.2206L148.73 23.6183L150.5 29.8414L152.288 35.8612L154.077 41.6965L156.326 50.9294L158.428 60.5686L160.88 71.4266C160.88 71.4266 163.498 84.2419 163.498 84.5004C163.498 84.759 165.691 94.9337 165.691 94.9337L167.443 104.167L168.881 110.777L168.918 110.981H163.147L151.79 47.3101L149.173 36.8584C149.173 36.8584 147.274 31.0416 146.739 28.8627C146.26 26.8683 144.25 21.5871 144.25 21.5871L144.305 20.2021L145.393 20.276" fill="white"/>
<path d="M142.426 20.1498L141.609 20.2949L157.65 110.859L158.467 110.714L142.426 20.1498Z" fill="white"/>
<path d="M205.991 66.5144L233.719 78.8865L233.849 75.7104L201.438 61.9902L205.991 66.5144Z" fill="white"/>
<path d="M179.312 42.3789L233.792 66.6246V69.8193L184.29 48.0664L179.312 42.3789Z" fill="white"/>
<path d="M158.555 25.7969L233.683 58.9616V60.8821L163.551 31.4844L158.555 25.7969Z" fill="white"/>
<path d="M158.891 17.376L234.019 50.5408L233.687 53.3845L163.555 21.4939L158.891 17.376Z" fill="white"/>
<path d="M166.891 12.335L233.685 41.8065V44.0409L171.334 15.6773L166.891 12.335Z" fill="white"/>
</g>
<path d="M51.7891 178.141H57.0803V179.599H51.7891V178.141Z" fill="white"/>
<path d="M66.0391 174.762H67.643V181.834H66.0391V174.762Z" fill="white"/>
<path d="M72.1953 174.762H73.7255L76.786 179.36V174.762H78.3715V181.834H76.915L73.7808 177.162V181.834H72.1953V174.762Z" fill="white"/>
<path d="M84.7314 176.165H82.4453V174.762H88.6215V176.165H86.3538V181.834H84.7499V176.165H84.7314Z" fill="white"/>
<path d="M92.6953 174.762H97.5256V176.165H94.2993V177.55H96.8066V178.898H94.2993V180.431H97.7653V181.834H92.6953V174.762Z" fill="white"/>
<path d="M102.008 174.762H104.626C105.031 174.762 105.4 174.817 105.714 174.928C106.027 175.039 106.285 175.205 106.488 175.408C106.691 175.611 106.857 175.851 106.949 176.11C107.041 176.368 107.096 176.664 107.096 176.959C107.096 177.421 107.004 177.827 106.801 178.159C106.598 178.51 106.322 178.769 105.953 178.99L107.52 181.816H105.769L104.46 179.212H103.575V181.816H102.026V174.743L102.008 174.762ZM104.552 177.956C104.847 177.956 105.087 177.864 105.253 177.698C105.419 177.532 105.511 177.291 105.511 177.033C105.511 176.737 105.419 176.516 105.253 176.35C105.087 176.184 104.847 176.091 104.552 176.091H103.575V177.975H104.552V177.956Z" fill="white"/>
<path d="M111.617 174.762H113.221V181.834H111.617V174.762Z" fill="white"/>
<path d="M121.161 182C120.645 182 120.147 181.908 119.705 181.705C119.262 181.502 118.875 181.243 118.543 180.929C118.211 180.597 117.953 180.209 117.769 179.748C117.584 179.286 117.492 178.806 117.492 178.289C117.492 177.772 117.584 177.273 117.769 176.811C117.953 176.35 118.211 175.962 118.543 175.63C118.875 175.297 119.262 175.039 119.705 174.854C120.147 174.669 120.645 174.559 121.161 174.559C121.677 174.559 122.175 174.651 122.617 174.854C123.06 175.057 123.447 175.316 123.779 175.63C124.111 175.962 124.369 176.35 124.553 176.811C124.738 177.273 124.83 177.753 124.83 178.289C124.83 178.824 124.738 179.304 124.553 179.748C124.369 180.209 124.111 180.597 123.779 180.929C123.447 181.262 123.06 181.52 122.617 181.705C122.175 181.89 121.677 182 121.161 182ZM121.161 180.486C121.474 180.486 121.751 180.431 121.991 180.301C122.23 180.172 122.452 180.024 122.617 179.821C122.783 179.618 122.931 179.378 123.023 179.12C123.115 178.861 123.152 178.566 123.152 178.252C123.152 177.938 123.115 177.661 123.023 177.402C122.931 177.144 122.802 176.904 122.617 176.701C122.433 176.498 122.23 176.331 121.991 176.221C121.751 176.11 121.456 176.054 121.161 176.054C120.866 176.054 120.571 176.11 120.313 176.221C120.055 176.331 119.852 176.498 119.686 176.701C119.52 176.904 119.373 177.144 119.281 177.402C119.188 177.661 119.151 177.956 119.151 178.252C119.151 178.547 119.188 178.843 119.281 179.12C119.373 179.397 119.502 179.618 119.686 179.821C119.852 180.024 120.073 180.191 120.313 180.301C120.571 180.431 120.848 180.486 121.161 180.486Z" fill="white"/>
<path d="M129.109 174.762H131.727C132.133 174.762 132.502 174.817 132.815 174.928C133.128 175.039 133.387 175.205 133.589 175.408C133.792 175.611 133.958 175.851 134.05 176.11C134.142 176.368 134.198 176.664 134.198 176.959C134.198 177.421 134.106 177.827 133.903 178.159C133.7 178.51 133.423 178.769 133.055 178.99L134.622 181.816H132.87L131.561 179.212H130.676V181.816H129.128V174.743L129.109 174.762ZM131.654 177.956C131.949 177.956 132.188 177.864 132.354 177.698C132.52 177.532 132.612 177.291 132.612 177.033C132.612 176.737 132.52 176.516 132.354 176.35C132.188 176.184 131.949 176.091 131.654 176.091H130.676V177.975H131.654V177.956Z" fill="white"/>
<path d="M143.805 174.762H146.478C147.013 174.762 147.529 174.836 147.99 174.983C148.451 175.131 148.856 175.334 149.188 175.63C149.52 175.925 149.778 176.294 149.981 176.738C150.165 177.199 150.257 177.716 150.257 178.344C150.257 178.972 150.165 179.434 149.981 179.877C149.796 180.32 149.52 180.671 149.188 180.966C148.856 181.262 148.451 181.483 147.99 181.631C147.529 181.779 147.031 181.853 146.478 181.853H143.823V174.78L143.805 174.762ZM146.386 180.412C147.086 180.412 147.639 180.228 148.008 179.858C148.395 179.489 148.58 178.972 148.58 178.326C148.58 177.993 148.543 177.698 148.451 177.439C148.358 177.181 148.229 176.941 148.045 176.756C147.861 176.571 147.639 176.424 147.363 176.313C147.086 176.221 146.755 176.165 146.386 176.165H145.409V180.412H146.386Z" fill="white"/>
<path d="M154.57 174.762H159.401V176.165H156.174V177.55H158.682V178.898H156.174V180.431H159.64V181.834H154.57V174.762Z" fill="white"/>
<path d="M164.435 179.71C164.527 179.803 164.638 179.914 164.767 180.006C164.896 180.117 165.025 180.209 165.173 180.283C165.32 180.375 165.486 180.431 165.67 180.486C165.855 180.541 166.039 180.56 166.242 180.56C166.353 180.56 166.482 180.56 166.611 180.505C166.721 180.468 166.832 180.412 166.943 180.357C167.035 180.283 167.127 180.209 167.182 180.117C167.238 180.024 167.274 179.914 167.274 179.803C167.274 179.544 167.145 179.341 166.887 179.193C166.629 179.046 166.224 178.898 165.689 178.769C165.412 178.695 165.173 178.621 164.951 178.492C164.73 178.362 164.527 178.233 164.362 178.049C164.196 177.882 164.067 177.679 163.974 177.458C163.882 177.236 163.845 176.996 163.845 176.719C163.845 176.424 163.901 176.147 164.011 175.888C164.122 175.63 164.269 175.389 164.491 175.186C164.712 174.983 164.97 174.817 165.302 174.706C165.615 174.595 166.002 174.54 166.445 174.54C166.814 174.54 167.127 174.577 167.404 174.651C167.68 174.725 167.92 174.817 168.104 174.909C168.307 175.02 168.454 175.112 168.583 175.223C168.712 175.334 168.805 175.426 168.86 175.482L167.938 176.497C167.938 176.497 167.772 176.368 167.662 176.294C167.551 176.22 167.44 176.147 167.311 176.091C167.182 176.017 167.053 175.98 166.887 175.925C166.74 175.888 166.574 175.87 166.408 175.87C166.297 175.87 166.187 175.87 166.076 175.925C165.965 175.962 165.873 175.999 165.781 176.073C165.689 176.147 165.615 176.202 165.56 176.294C165.505 176.368 165.486 176.461 165.486 176.553C165.486 176.793 165.615 176.996 165.873 177.144C166.131 177.291 166.482 177.421 166.924 177.513C167.182 177.568 167.44 177.661 167.698 177.772C167.957 177.882 168.178 178.03 168.362 178.196C168.565 178.381 168.712 178.584 168.842 178.843C168.971 179.101 169.026 179.415 169.026 179.784C169.026 180.098 168.952 180.394 168.823 180.671C168.694 180.948 168.491 181.169 168.252 181.372C168.012 181.576 167.717 181.723 167.404 181.834C167.072 181.945 166.721 182 166.334 182C165.984 182 165.652 181.963 165.376 181.908C165.081 181.834 164.822 181.76 164.583 181.649C164.343 181.539 164.14 181.409 163.956 181.28C163.772 181.132 163.606 181.003 163.477 180.837L164.509 179.729L164.435 179.71Z" fill="white"/>
<path d="M173.336 174.762H174.94V181.834H173.336V174.762Z" fill="white"/>
<path d="M183.143 177.938H185.871V181.003C185.503 181.317 185.079 181.576 184.581 181.742C184.083 181.908 183.53 182 182.903 182C182.332 182 181.815 181.908 181.355 181.723C180.894 181.539 180.506 181.299 180.193 180.966C179.88 180.634 179.64 180.246 179.474 179.803C179.308 179.36 179.234 178.861 179.234 178.307C179.234 177.753 179.327 177.292 179.492 176.83C179.677 176.368 179.917 175.98 180.248 175.648C180.58 175.316 180.949 175.057 181.41 174.854C181.871 174.651 182.35 174.559 182.885 174.559C183.53 174.559 184.083 174.669 184.581 174.909C185.06 175.15 185.466 175.482 185.779 175.907L184.692 176.941C184.47 176.664 184.212 176.461 183.954 176.276C183.678 176.11 183.346 176.017 182.959 176.017C182.627 176.017 182.35 176.073 182.092 176.202C181.834 176.313 181.631 176.479 181.447 176.682C181.262 176.885 181.133 177.125 181.041 177.402C180.949 177.679 180.912 177.975 180.912 178.289C180.912 178.621 180.967 178.935 181.078 179.212C181.189 179.489 181.336 179.729 181.52 179.914C181.705 180.117 181.945 180.265 182.184 180.357C182.442 180.468 182.719 180.523 183.032 180.523C183.309 180.523 183.567 180.486 183.807 180.431C184.046 180.357 184.249 180.265 184.433 180.098V179.212H183.18V177.919L183.143 177.938Z" fill="white"/>
<path d="M190.32 174.762H191.851L194.911 179.36V174.762H196.496V181.834H195.04L191.906 177.162V181.834H190.32V174.762Z" fill="white"/>
<path d="M206.078 177.605H207.811V179.286H206.078V177.605Z" fill="white"/>
<path d="M217.398 174.762H219.002V177.476H222.063V174.762H223.667V181.834H222.063V178.935H219.002V181.834H217.398V174.762Z" fill="white"/>
<path d="M231.614 182C231.098 182 230.6 181.908 230.158 181.705C229.715 181.502 229.328 181.243 228.996 180.929C228.664 180.597 228.406 180.209 228.222 179.748C228.037 179.286 227.945 178.806 227.945 178.289C227.945 177.772 228.037 177.273 228.222 176.811C228.406 176.35 228.664 175.962 228.996 175.63C229.328 175.297 229.715 175.039 230.158 174.854C230.6 174.669 231.098 174.559 231.614 174.559C232.13 174.559 232.628 174.651 233.071 174.854C233.513 175.057 233.9 175.316 234.232 175.63C234.564 175.944 234.822 176.35 235.006 176.811C235.191 177.273 235.283 177.753 235.283 178.289C235.283 178.824 235.191 179.304 235.006 179.748C234.822 180.209 234.564 180.597 234.232 180.929C233.9 181.262 233.513 181.52 233.071 181.705C232.628 181.89 232.13 182 231.614 182ZM231.614 180.486C231.928 180.486 232.204 180.431 232.444 180.301C232.683 180.172 232.905 180.024 233.071 179.821C233.237 179.618 233.384 179.378 233.458 179.12C233.532 178.861 233.605 178.566 233.605 178.252C233.605 177.938 233.55 177.661 233.458 177.402C233.366 177.144 233.237 176.904 233.071 176.701C232.905 176.498 232.683 176.331 232.444 176.221C232.204 176.11 231.909 176.054 231.614 176.054C231.319 176.054 231.024 176.11 230.766 176.221C230.508 176.331 230.305 176.498 230.139 176.701C229.973 176.904 229.826 177.144 229.752 177.402C229.678 177.661 229.605 177.956 229.605 178.252C229.605 178.547 229.66 178.843 229.752 179.12C229.844 179.397 229.973 179.618 230.139 179.821C230.305 180.024 230.526 180.191 230.766 180.301C231.006 180.412 231.301 180.486 231.614 180.486Z" fill="white"/>
<path d="M239.785 174.762H241.297L243.14 178.086L244.947 174.762H246.477L246.809 181.834H245.205L245.002 177.218L243.546 179.969H242.716L241.168 177.236L240.983 181.834H239.453L239.785 174.762Z" fill="white"/>
<path d="M251.211 174.762H256.041V176.165H252.815V177.55H255.322V178.898H252.815V180.431H256.281V181.834H251.211V174.762Z" fill="white"/>
<path d="M265.628 174.762H268.301C268.836 174.762 269.352 174.836 269.813 174.983C270.274 175.131 270.679 175.334 271.011 175.63C271.343 175.925 271.601 176.294 271.786 176.738C271.97 177.181 272.062 177.716 272.062 178.344C272.062 178.972 271.97 179.434 271.767 179.877C271.583 180.32 271.306 180.671 270.974 180.966C270.642 181.262 270.237 181.483 269.776 181.631C269.315 181.779 268.817 181.853 268.264 181.853H265.609V174.78L265.628 174.762ZM268.209 180.412C268.909 180.412 269.463 180.228 269.831 179.858C270.218 179.489 270.403 178.972 270.403 178.326C270.403 177.993 270.366 177.698 270.274 177.439C270.182 177.181 270.053 176.941 269.868 176.756C269.684 176.571 269.463 176.424 269.186 176.313C268.909 176.221 268.578 176.165 268.209 176.165H267.232V180.412H268.209Z" fill="white"/>
<path d="M276.398 174.761H281.229V176.164H278.002V177.549H280.51V178.897H278.002V180.43H281.468V181.833H276.398V174.761ZM278.943 172.582H280.676L279.422 174.244H278.187L278.961 172.582H278.943Z" fill="white"/>
<path d="M291.739 180.523C291.591 180.726 291.407 180.911 291.204 181.096C291.001 181.28 290.762 181.428 290.503 181.576C290.245 181.705 289.969 181.816 289.674 181.89C289.379 181.963 289.065 182 288.734 182C288.199 182 287.701 181.908 287.259 181.723C286.816 181.539 286.429 181.28 286.116 180.948C285.802 180.615 285.544 180.228 285.36 179.784C285.175 179.341 285.102 178.843 285.102 178.307C285.102 177.772 285.194 177.292 285.36 176.83C285.544 176.368 285.784 175.98 286.116 175.648C286.429 175.316 286.816 175.039 287.277 174.854C287.738 174.669 288.217 174.559 288.77 174.559C289.434 174.559 290.006 174.688 290.485 174.928C290.983 175.168 291.388 175.519 291.702 175.962L290.614 177.015C290.393 176.719 290.153 176.479 289.858 176.294C289.563 176.11 289.231 176.017 288.826 176.017C288.512 176.017 288.217 176.073 287.978 176.184C287.72 176.294 287.517 176.461 287.332 176.664C287.148 176.867 287.019 177.107 286.927 177.384C286.835 177.661 286.779 177.938 286.779 178.252C286.779 178.566 286.835 178.861 286.927 179.12C287.019 179.378 287.148 179.618 287.332 179.821C287.517 180.024 287.72 180.172 287.959 180.283C288.199 180.394 288.494 180.449 288.789 180.449C289.047 180.449 289.268 180.431 289.453 180.375C289.637 180.32 289.803 180.246 289.95 180.172C290.098 180.08 290.227 179.988 290.337 179.858C290.448 179.729 290.559 179.618 290.669 179.507L291.757 180.505L291.739 180.523Z" fill="white"/>
<path d="M298.966 182C298.449 182 297.952 181.908 297.509 181.705C297.067 181.502 296.68 181.243 296.348 180.929C296.016 180.597 295.758 180.209 295.573 179.748C295.389 179.286 295.297 178.806 295.297 178.289C295.297 177.772 295.389 177.273 295.573 176.811C295.758 176.35 296.016 175.962 296.348 175.63C296.68 175.297 297.067 175.039 297.509 174.854C297.952 174.669 298.449 174.559 298.966 174.559C299.482 174.559 299.98 174.651 300.422 174.854C300.865 175.057 301.252 175.316 301.584 175.63C301.916 175.944 302.174 176.35 302.358 176.811C302.542 177.273 302.635 177.753 302.635 178.289C302.635 178.824 302.542 179.304 302.358 179.748C302.174 180.209 301.916 180.597 301.584 180.929C301.252 181.262 300.865 181.52 300.422 181.705C299.98 181.89 299.482 182 298.966 182ZM298.966 180.486C299.279 180.486 299.556 180.431 299.795 180.301C300.035 180.172 300.256 180.024 300.422 179.821C300.588 179.618 300.736 179.378 300.809 179.12C300.883 178.861 300.957 178.566 300.957 178.252C300.957 177.938 300.902 177.661 300.809 177.402C300.717 177.144 300.588 176.904 300.422 176.701C300.256 176.498 300.035 176.331 299.795 176.221C299.556 176.11 299.261 176.054 298.966 176.054C298.671 176.054 298.376 176.11 298.118 176.221C297.86 176.331 297.657 176.498 297.491 176.701C297.325 176.904 297.177 177.144 297.104 177.402C297.03 177.661 296.956 177.956 296.956 178.252C296.956 178.547 297.011 178.843 297.104 179.12C297.196 179.397 297.325 179.618 297.491 179.821C297.657 180.024 297.878 180.191 298.118 180.301C298.357 180.412 298.652 180.486 298.966 180.486Z" fill="white"/>
<path d="M306.906 174.762H309.524C309.93 174.762 310.299 174.817 310.612 174.928C310.925 175.039 311.183 175.205 311.386 175.408C311.589 175.611 311.755 175.851 311.847 176.11C311.939 176.368 311.995 176.664 311.995 176.959C311.995 177.421 311.903 177.827 311.7 178.159C311.497 178.51 311.22 178.769 310.852 178.99L312.419 181.816H310.667L309.358 179.212H308.473V181.816H306.925V174.743L306.906 174.762ZM309.45 177.956C309.745 177.956 309.985 177.864 310.151 177.698C310.317 177.513 310.409 177.291 310.409 177.033C310.409 176.737 310.317 176.516 310.151 176.35C309.985 176.184 309.745 176.091 309.45 176.091H308.473V177.975H309.45V177.956Z" fill="white"/>
<path d="M320.906 178.141H326.197V179.599H320.906V178.141Z" fill="white"/>
<path d="M200.497 148.817C200.811 149.149 201.161 149.482 201.585 149.833C202.009 150.184 202.47 150.497 202.968 150.774C203.466 151.051 204.037 151.291 204.645 151.476C205.254 151.661 205.899 151.735 206.581 151.735C206.987 151.735 207.392 151.679 207.798 151.55C208.204 151.439 208.572 151.255 208.904 151.033C209.236 150.811 209.513 150.534 209.697 150.22C209.9 149.907 209.992 149.537 209.992 149.131C209.992 148.245 209.568 147.561 208.701 147.081C207.853 146.601 206.489 146.121 204.645 145.641C203.742 145.419 202.912 145.124 202.138 144.718C201.364 144.311 200.7 143.831 200.147 143.259C199.594 142.686 199.151 142.04 198.838 141.301C198.525 140.563 198.377 139.75 198.377 138.845C198.377 137.848 198.561 136.907 198.912 136.02C199.262 135.134 199.815 134.358 200.534 133.675C201.253 132.992 202.157 132.456 203.244 132.068C204.332 131.681 205.604 131.478 207.079 131.478C208.296 131.478 209.365 131.607 210.287 131.847C211.209 132.105 212.002 132.401 212.647 132.733C213.292 133.066 213.827 133.435 214.251 133.804C214.675 134.174 214.988 134.469 215.191 134.672L212.094 138.107C211.836 137.885 211.522 137.664 211.19 137.405C210.858 137.147 210.453 136.925 210.029 136.703C209.605 136.482 209.125 136.316 208.628 136.168C208.13 136.02 207.577 135.946 207.005 135.946C206.618 135.946 206.249 136.002 205.881 136.131C205.512 136.242 205.18 136.408 204.885 136.611C204.59 136.814 204.35 137.054 204.166 137.331C203.982 137.608 203.908 137.904 203.908 138.199C203.908 139.012 204.332 139.658 205.199 140.157C206.047 140.655 207.227 141.08 208.72 141.412C209.605 141.634 210.453 141.911 211.301 142.28C212.149 142.649 212.905 143.13 213.569 143.72C214.232 144.311 214.767 145.05 215.173 145.918C215.578 146.786 215.781 147.838 215.781 149.076C215.781 150.147 215.541 151.125 215.062 152.03C214.583 152.935 213.937 153.711 213.126 154.394C212.315 155.077 211.338 155.576 210.232 155.945C209.125 156.314 207.927 156.499 206.655 156.499C205.475 156.499 204.387 156.388 203.41 156.166C202.433 155.945 201.567 155.649 200.774 155.28C199.981 154.911 199.28 154.486 198.654 154.006C198.027 153.526 197.474 153.046 197.031 152.547L200.479 148.799L200.497 148.817Z" fill="white"/>
<path d="M235.54 136.851H227.852V132.105H248.611V136.851H240.96V155.908H235.54V136.851Z" fill="white"/>
<path d="M262.18 132.105H267.6V146.195C267.6 146.989 267.674 147.691 267.84 148.319C267.987 148.946 268.245 149.5 268.614 149.944C268.964 150.405 269.444 150.756 270.015 150.996C270.587 151.236 271.324 151.365 272.172 151.365C273.02 151.365 273.702 151.236 274.292 150.996C274.882 150.756 275.343 150.387 275.693 149.944C276.044 149.5 276.302 148.946 276.468 148.319C276.615 147.691 276.707 146.989 276.707 146.195V132.105H282.165V146.878C282.165 148.3 281.925 149.611 281.464 150.811C281.003 151.993 280.339 153.027 279.473 153.858C278.606 154.708 277.556 155.354 276.32 155.834C275.085 156.314 273.702 156.554 272.191 156.554C270.679 156.554 269.296 156.314 268.061 155.853C266.826 155.391 265.775 154.726 264.908 153.877C264.042 153.027 263.378 151.993 262.917 150.811C262.456 149.63 262.217 148.319 262.217 146.878V132.105H262.18Z" fill="white"/>
<path d="M297.266 132.105H306.244C308.069 132.105 309.765 132.346 311.314 132.826C312.863 133.306 314.209 134.026 315.333 135.005C316.458 135.983 317.343 137.221 317.97 138.753C318.596 140.286 318.91 142.077 318.91 144.145C318.91 146.213 318.596 147.838 317.951 149.297C317.306 150.756 316.421 151.993 315.296 152.972C314.172 153.951 312.826 154.689 311.277 155.188C309.729 155.668 308.032 155.926 306.207 155.926H297.266V132.124V132.105ZM305.931 151.125C308.309 151.125 310.134 150.498 311.425 149.26C312.715 148.023 313.342 146.287 313.342 144.108C313.342 143.019 313.195 142.022 312.9 141.135C312.605 140.249 312.144 139.492 311.554 138.846C310.945 138.218 310.189 137.719 309.249 137.387C308.327 137.036 307.221 136.87 305.931 136.87H302.649V151.144H305.931V151.125Z" fill="white"/>
<path d="M333.492 132.105H338.876V155.908H333.492V132.105Z" fill="white"/>
<path d="M365.626 156.517C363.874 156.517 362.234 156.203 360.722 155.557C359.21 154.911 357.901 154.043 356.813 152.916C355.707 151.79 354.841 150.479 354.214 148.946C353.587 147.414 353.273 145.77 353.273 143.997C353.273 142.225 353.587 140.563 354.214 139.03C354.841 137.516 355.707 136.186 356.813 135.078C357.919 133.952 359.228 133.084 360.722 132.438C362.234 131.791 363.856 131.478 365.626 131.478C367.396 131.478 369.018 131.791 370.53 132.438C372.042 133.084 373.351 133.952 374.438 135.078C375.545 136.205 376.411 137.516 377.038 139.03C377.665 140.544 377.978 142.206 377.978 143.997C377.978 145.789 377.665 147.414 377.038 148.946C376.411 150.479 375.545 151.809 374.438 152.916C373.332 154.043 372.023 154.911 370.53 155.557C369.018 156.203 367.396 156.517 365.626 156.517ZM365.626 151.458C366.677 151.458 367.617 151.255 368.447 150.848C369.276 150.442 369.977 149.888 370.567 149.205C371.157 148.522 371.599 147.728 371.894 146.823C372.208 145.918 372.355 144.958 372.355 143.942C372.355 142.926 372.208 141.948 371.894 141.061C371.581 140.157 371.138 139.362 370.567 138.698C369.977 138.014 369.276 137.479 368.447 137.091C367.617 136.703 366.677 136.5 365.626 136.5C364.575 136.5 363.635 136.703 362.787 137.091C361.939 137.479 361.238 138.014 360.648 138.698C360.058 139.381 359.616 140.175 359.321 141.061C359.007 141.966 358.86 142.926 358.86 143.942C358.86 144.958 359.007 145.936 359.321 146.823C359.634 147.728 360.076 148.522 360.648 149.205C361.238 149.888 361.939 150.442 362.787 150.848C363.635 151.255 364.575 151.458 365.626 151.458Z" fill="white"/>
<path d="M0 131.699H9.14442C11.0065 131.699 12.7211 131.939 14.3066 132.419C15.8921 132.9 17.2564 133.638 18.3995 134.635C19.5425 135.632 20.4459 136.907 21.0912 138.458C21.7364 140.009 22.0498 141.837 22.0498 143.942C22.0498 146.047 21.718 147.709 21.0727 149.186C20.4275 150.682 19.5241 151.919 18.3626 152.935C17.2195 153.932 15.8552 154.689 14.2697 155.188C12.6842 155.686 10.9696 155.926 9.10755 155.926H0V131.699ZM8.81256 151.051C11.2277 151.051 13.0898 150.424 14.3988 149.149C15.7078 147.875 16.353 146.121 16.353 143.905C16.353 142.797 16.2055 141.782 15.8921 140.877C15.5787 139.972 15.1362 139.196 14.5094 138.55C13.901 137.904 13.1082 137.405 12.168 137.054C11.2277 136.703 10.1031 136.519 8.79413 136.519H5.45715V151.051H8.79413H8.81256Z" fill="white"/>
<path d="M36.875 131.699H53.4124V136.5H42.3506V141.228H50.9419V145.881H42.3506V151.107H54.2051V155.945H36.875V131.718V131.699Z" fill="white"/>
<path d="M70.6882 148.706C71.0016 149.038 71.3704 149.389 71.7944 149.74C72.2184 150.091 72.6793 150.405 73.214 150.7C73.7486 150.996 74.3017 151.236 74.9101 151.402C75.5185 151.587 76.1822 151.679 76.8828 151.679C77.2884 151.679 77.7125 151.624 78.1181 151.494C78.5237 151.365 78.9108 151.199 79.2427 150.959C79.5745 150.737 79.8511 150.442 80.0539 150.128C80.2567 149.796 80.3673 149.426 80.3673 149.02C80.3673 148.134 79.9248 147.432 79.0583 146.933C78.1918 146.435 76.8091 145.955 74.9286 145.456C74.0068 145.234 73.1587 144.921 72.3659 144.514C71.5732 144.108 70.9095 143.609 70.3379 143.019C69.7664 142.446 69.3239 141.763 69.0105 141.024C68.6971 140.267 68.5312 139.436 68.5312 138.513C68.5312 137.497 68.7155 136.537 69.0658 135.651C69.4345 134.764 69.9876 133.97 70.7251 133.269C71.4625 132.585 72.3844 132.031 73.4721 131.625C74.5783 131.219 75.8688 131.034 77.3806 131.034C78.6158 131.034 79.7036 131.163 80.6438 131.422C81.5841 131.68 82.3953 131.976 83.059 132.327C83.7227 132.678 84.2758 133.047 84.6814 133.416C85.1054 133.786 85.4188 134.081 85.6401 134.303L82.4875 137.793C82.2294 137.571 81.9159 137.331 81.5657 137.091C81.2154 136.851 80.8282 136.592 80.3857 136.389C79.9432 136.186 79.4639 135.983 78.9477 135.835C78.4315 135.688 77.8784 135.614 77.2884 135.614C76.9013 135.614 76.5141 135.669 76.1454 135.798C75.7766 135.928 75.4264 136.075 75.1314 136.297C74.8364 136.519 74.5967 136.74 74.4124 137.017C74.228 137.294 74.1358 137.59 74.1358 137.904C74.1358 138.734 74.5783 139.399 75.4448 139.898C76.3113 140.415 77.5097 140.821 79.0399 141.172C79.9432 141.394 80.8098 141.689 81.6763 142.058C82.5243 142.428 83.2987 142.926 83.9808 143.536C84.663 144.145 85.1976 144.884 85.6032 145.77C86.0088 146.656 86.2116 147.727 86.2116 148.983C86.2116 150.073 85.9719 151.07 85.4926 151.993C85.0132 152.916 84.3495 153.71 83.5199 154.394C82.6903 155.077 81.7131 155.594 80.5885 155.982C79.4639 156.351 78.2471 156.554 76.9381 156.554C75.7213 156.554 74.6336 156.443 73.638 156.203C72.6425 155.963 71.7575 155.668 70.9463 155.298C70.1536 154.929 69.4345 154.486 68.7893 154.006C68.144 153.526 67.5909 153.027 67.1484 152.51L70.6698 148.688L70.6882 148.706Z" fill="white"/>
<path d="M101.18 131.699H106.655V155.926H101.18V131.699Z" fill="white"/>
<path d="M134.753 142.594H144.081V153.101C142.828 154.191 141.353 155.04 139.675 155.631C137.997 156.222 136.08 156.517 133.923 156.517C131.932 156.517 130.162 156.204 128.613 155.594C127.065 154.985 125.737 154.117 124.649 152.99C123.562 151.883 122.732 150.553 122.161 149.002C121.589 147.451 121.312 145.752 121.312 143.887C121.312 142.022 121.607 140.397 122.216 138.846C122.824 137.294 123.672 135.946 124.797 134.802C125.903 133.657 127.231 132.752 128.742 132.087C130.254 131.422 131.95 131.108 133.812 131.108C136.006 131.108 137.942 131.515 139.601 132.327C141.261 133.14 142.625 134.266 143.713 135.725L140.007 139.252C139.233 138.329 138.385 137.59 137.444 136.999C136.522 136.427 135.379 136.131 134.015 136.131C132.909 136.131 131.913 136.334 131.047 136.741C130.18 137.147 129.443 137.701 128.835 138.402C128.226 139.104 127.765 139.935 127.452 140.877C127.138 141.819 126.972 142.834 126.972 143.887C126.972 145.05 127.157 146.103 127.507 147.044C127.876 147.986 128.374 148.799 129.037 149.464C129.683 150.128 130.457 150.645 131.342 151.015C132.227 151.384 133.185 151.569 134.218 151.569C135.177 151.569 136.062 151.458 136.873 151.218C137.684 150.978 138.385 150.627 139.011 150.11V147.063H134.734V142.631L134.753 142.594Z" fill="white"/>
<path d="M159.344 131.699H164.561L175.033 147.432V131.699H180.435V155.926H175.476L164.746 139.917V155.926H159.344V131.699Z" fill="white"/>
</g>
<defs>
<clipPath id="clip0_3622_2987">
<rect width="378" height="182" fill="white"/>
</clipPath>
</defs>
</svg>
