<svg width="56" height="78" viewBox="0 0 56 78" fill="none" xmlns="http://www.w3.org/2000/svg">
<path d="M25.1224 76.4263C3.93313 44.3367 0 41.0434 0 29.25C0 13.0956 12.536 0 28 0C43.464 0 56 13.0956 56 29.25C56 41.0434 52.0669 44.3367 30.8776 76.4263C29.4871 78.5247 26.5128 78.5245 25.1224 76.4263ZM28 41.4375C34.4434 41.4375 39.6667 35.981 39.6667 29.25C39.6667 22.519 34.4434 17.0625 28 17.0625C21.5566 17.0625 16.3333 22.519 16.3333 29.25C16.3333 35.981 21.5566 41.4375 28 41.4375Z" fill="#CE6034"/>
</svg>
