<svg viewBox="0 0 589 473" fill="none" xmlns="http://www.w3.org/2000/svg">
<g opacity="0.8">
<path d="M405.783 247.666C394.053 256.499 381.465 263.813 368.366 270.283C355.253 276.704 341.633 282.037 327.592 286.119C299.56 294.268 269.731 297.232 240.557 293.151C211.38 289.234 183.27 278.196 158.594 262.221C133.803 246.309 112.245 225.85 93.4346 203.436L93.9978 204.018C86.5293 197.45 80.31 190.542 74.2131 183.161C68.1641 175.846 62.5619 168.227 57.3402 160.353C46.8476 144.619 37.9589 127.863 30.2727 110.619C22.7514 93.2958 16.4171 75.4347 11.5448 57.2205C6.64013 38.9893 2.93526 20.4334 0.45998 1.73335L13.5116 0.10731C15.5859 18.3099 18.8405 36.3839 23.2949 54.1332C27.7 71.8981 33.4854 89.3085 40.4732 106.23C47.5767 123.089 55.8826 139.459 65.7757 154.839C70.6728 162.545 75.9505 169.995 81.6257 177.156C87.2529 184.252 93.4214 191.257 99.7893 197.088L100.176 197.454L100.352 197.67C118.315 219.889 138.879 240.121 162.608 255.934C186.221 271.81 213.119 282.959 241.308 287.27C269.493 291.744 298.625 289.408 326.287 281.892C340.126 278.118 353.659 273.111 366.686 267.016C379.68 260.903 392.346 253.837 403.938 245.427L405.636 247.631L405.783 247.666Z" fill="currentColor"/>
<path d="M540.124 164.697C533.892 168.592 527.988 172.411 522.082 176.311L504.516 187.801L469.795 210.707C466.9 212.625 463.957 214.477 460.999 216.28C458.088 218.149 455.113 219.984 452.089 221.753C446.011 225.192 439.932 228.713 433.628 231.952C427.388 235.307 421.179 238.76 414.969 242.296C408.758 245.831 403.125 250.079 396.737 253.481C406.078 242.662 415.919 232.227 425.828 221.663C435.881 211.297 446.821 201.764 459.07 194.151C471.224 186.405 484.05 179.586 497.571 174.285C504.355 171.708 511.266 169.362 518.379 167.658C525.442 165.97 532.746 164.613 540.124 164.697Z" fill="currentColor"/>
<path d="M588.963 210.946C575.1 224.116 559.244 234.144 542.851 242.984C526.361 251.693 509.063 258.866 491.074 264.195C473.118 269.541 454.422 273.14 435.346 273.901C425.833 274.273 416.218 273.891 406.704 272.365C397.238 270.824 387.837 268.366 379.352 263.91C398.241 261.526 415.27 257.884 432.475 253.426C449.597 249.049 466.516 244.031 483.567 238.998C500.603 233.916 517.721 228.753 535.163 223.841C552.635 219.028 570.222 214.233 588.98 210.913L588.963 210.946Z" fill="currentColor"/>
<path d="M565.439 287.458C556.882 292.413 547.631 295.769 538.322 298.682L531.285 300.714C528.935 301.348 526.57 301.851 524.221 302.403C519.489 303.572 514.698 304.38 509.939 305.204C490.793 308.321 471.388 309.241 452.091 308.525L437.642 307.526C432.822 307.122 428.054 306.539 423.254 305.857C413.669 304.625 404.225 302.805 394.837 300.561C390.124 299.553 385.465 298.284 380.858 296.836C376.217 295.453 371.644 293.939 367.088 292.394C357.979 289.057 349.059 285.2 340.396 280.61C350.28 279.605 359.834 279.707 369.325 279.694C374.087 279.655 378.816 279.681 383.51 279.772C385.85 279.793 388.221 279.913 390.526 279.998C392.866 280.019 395.222 280.007 397.561 280.11C402.255 280.201 406.916 280.357 411.526 280.61L425.444 281.044C430.088 281.232 434.68 281.6 439.327 281.625L453.176 282.27L508.64 284.64C527.264 285.46 545.854 286.345 565.39 287.473L565.439 287.458Z" fill="currentColor"/>
<path d="M582.148 326.272C559.563 336.472 535.131 341.584 510.658 344.24C486.136 346.829 461.222 346.45 436.68 343.294C424.363 342.001 412.235 339.239 400.168 336.674C394.207 334.975 388.228 333.39 382.285 331.577C379.355 330.63 376.34 329.928 373.446 328.752L364.779 325.439C341.568 316.951 319.88 304.428 300.507 289.356C324.737 294.619 347.355 301.313 370.667 305.644C382.109 308.38 393.783 309.956 405.264 312.299L422.631 314.9C425.537 315.339 428.407 315.924 431.281 316.265L440.003 317.254C463.205 320.291 486.553 322.413 510.177 323.689C533.814 325.095 557.562 325.816 582.146 326.354L582.148 326.272Z" fill="currentColor"/>
<path d="M487.537 440.106C467.135 427.964 447.851 415.495 428.499 403.156C409.231 390.737 390.142 378.37 370.902 366.213L363.762 361.549L356.488 357.063L342.092 347.881L313.067 329.725C293.8 317.224 274.009 305.73 254.601 291.835C278.039 295.448 300.837 302.194 322.516 311.329C333.523 315.612 344.006 320.984 354.539 326.259C364.854 331.873 375.2 337.587 385.043 344.029C404.93 356.605 423.693 370.948 441.089 386.807C458.369 402.731 474.711 419.981 487.537 440.106Z" fill="currentColor"/>
<path d="M416.777 459.444C403.606 456.386 391.11 451.081 379.15 444.981C367.175 438.833 355.691 431.661 344.861 423.55C334.08 415.423 323.72 406.567 314.309 396.76C309.428 392.033 305.08 386.759 300.615 381.63C298.35 379.089 296.334 376.307 294.267 373.623C292.217 370.906 290.118 368.204 288.134 365.439L287.734 364.86L287.511 364.496C286.572 362.893 285.249 360.761 284.003 358.875C282.742 356.94 281.383 355.036 280.057 353.067C277.421 349.178 274.553 345.417 271.703 341.623C265.953 334.051 259.787 326.882 253.308 319.838C246.846 312.763 239.85 306.317 232.476 299.963C225.07 293.592 216.961 288.176 208.316 282.523C218.479 283.437 228.795 285.958 238.398 290.088C248.001 294.218 257.31 299.31 265.765 305.566C274.288 311.692 282.208 318.66 289.546 326.192C293.182 329.982 296.652 333.933 300.021 337.997C301.722 340.037 303.308 342.141 304.876 344.278C306.493 346.481 307.965 348.485 309.657 351.098L309.034 350.155C316.809 360.018 324.633 369.866 333.136 379.2C337.229 384.012 341.656 388.502 345.931 393.202C350.407 397.677 354.649 402.442 359.273 406.788C368.239 415.868 377.569 424.642 387.179 433.356C396.771 442.102 406.58 450.671 416.777 459.444Z" fill="currentColor"/>
<path d="M360.798 456.557C335.935 449.026 312.809 437.364 290.756 424.115C268.721 410.751 247.948 395.28 228.695 377.918C223.958 373.472 219.235 369.076 214.664 364.469C210.092 359.862 205.687 355.094 201.298 350.294C192.688 340.532 184.608 330.304 177.208 319.563C169.941 308.726 163.335 297.408 157.752 285.632C155.151 279.616 152.45 273.713 150.49 267.494C149.461 264.4 148.348 261.387 147.533 258.199C146.751 255.027 145.885 251.936 145.234 248.75C149.339 253.857 152.886 259.086 156.929 263.995C160.741 269.032 164.834 273.844 168.731 278.718C176.788 288.275 184.981 297.572 193.423 306.627C201.965 315.569 210.558 324.414 219.384 333.05C223.896 337.295 228.209 341.685 232.821 345.818C237.267 350.112 241.879 354.245 246.425 358.426C264.807 375.005 283.604 391.263 302.796 407.315C321.97 423.481 341.376 439.52 360.815 456.525L360.798 456.557Z" fill="currentColor"/>
<path d="M62.1352 157.319C78.686 182.806 93.4603 208.855 107.823 235.061C122.087 261.298 135.875 287.658 149.514 314.065L190.056 393.297C203.712 419.671 217.157 445.977 232.353 472.245C226.559 467.373 220.966 462.194 215.406 456.949C210.063 451.528 205.067 445.834 199.957 440.122C194.897 434.394 190.382 428.332 185.685 422.381C180.956 416.413 176.59 410.221 172.323 403.999C163.51 391.615 155.72 378.69 147.832 365.797L136.684 346.092C133.012 339.519 129.588 332.786 126.098 326.101C112.301 299.282 99.9556 271.815 89.1253 243.734C78.3612 215.605 68.6841 187.051 62.1352 157.319Z" fill="currentColor"/>
<path d="M43.4777 133.582C56.0409 159.759 66.5513 186.395 76.5696 213.104C86.4891 239.845 95.9166 266.66 104.867 293.598C113.769 320.552 122.59 347.423 131.23 374.406C139.934 401.422 148.38 428.221 159.048 455.187C154.243 449.84 149.376 444.295 144.988 438.463C140.765 432.553 136.659 426.496 132.718 420.361C129.041 414.115 125.38 407.836 121.835 401.494C118.389 395.121 115.206 388.638 111.991 382.137C99.5405 356.06 88.8537 329.209 79.8588 301.959C70.799 274.675 63.0377 247.035 56.7554 219.01C50.5717 190.953 45.4399 162.619 43.4114 133.63L43.4777 133.582Z" fill="currentColor"/>
<path d="M32.9858 98.8273L27.0159 176.551C25.1706 202.287 23.6383 227.896 22.9408 253.486C22.2433 279.076 22.3651 304.598 23.9929 330.077C24.8809 342.794 25.9648 355.53 27.7525 368.261C29.4415 381.023 31.9017 393.65 34.6527 406.51C21.2138 383.838 13.2763 357.964 8.58083 331.961C3.93602 305.86 2.45672 279.302 3.18324 252.943C3.90971 226.584 6.85878 200.392 11.6345 174.572C16.5893 148.804 23.0617 123.289 32.9365 98.8429L32.9858 98.8273Z" fill="currentColor"/>
<path d="M397.42 210.801C393.805 219.73 388.031 227.578 381.743 234.828L376.846 240.119C375.197 241.86 373.372 243.387 371.594 245.061C368.087 248.393 364.292 251.329 360.432 254.23C344.928 265.721 327.297 274.165 309.006 279.997L295.086 283.688C292.753 284.289 290.421 284.809 288.059 285.148C285.712 285.536 283.349 285.957 280.955 286.279C271.519 287.93 262.006 288.302 252.497 288.43C247.765 288.649 243.026 288.247 238.287 287.844C233.581 287.458 228.861 286.941 224.207 286.376C219.538 285.68 214.91 284.51 210.33 283.406C205.718 282.285 201.175 280.952 196.683 279.441C205.973 276.724 215.031 275.165 223.96 273.457C228.411 272.431 232.829 271.47 237.245 270.591C239.429 270.118 241.644 269.744 243.827 269.353C246.04 269.061 248.18 268.276 250.331 267.868C254.668 266.824 258.971 265.845 263.288 264.997C265.471 264.606 267.574 264.05 269.695 263.462L276.038 261.811C284.594 259.95 292.82 257.216 301.203 254.894C317.718 249.623 333.932 243.742 349.84 236.547C365.814 229.304 381.46 221.188 397.354 210.849L397.42 210.801Z" fill="currentColor"/>
<path d="M353.578 143.221C353.103 149.286 351.843 155.274 350.225 161.157C348.639 167.058 346.596 172.885 344.18 178.56C339.379 189.926 333.065 200.793 325.39 210.787C310.107 230.809 288.813 247.085 264.69 256.36C258.581 258.669 252.692 260.556 246.071 262.186C239.831 263.56 233.677 264.608 227.463 265.377C215.053 266.801 202.464 267.141 189.853 265.86C177.293 264.482 164.643 261.531 152.986 255.961C141.443 250.409 130.882 241.86 125.105 230.932C146.17 243.543 168.358 244.567 190.53 243.56C201.633 242.983 212.766 241.638 223.841 239.768C229.354 238.84 234.918 237.816 240.224 236.574C245.135 235.457 250.578 233.792 255.614 232.039C276.038 224.882 294.799 213.313 311.2 198.039C327.52 182.682 341.845 164.265 353.529 143.237L353.578 143.221Z" fill="currentColor"/>
<path d="M258.998 195.262C255.485 201.934 250.193 207.35 244.517 212.236C241.6 214.514 238.632 216.89 235.427 218.77C233.855 219.809 232.22 220.733 230.601 221.705C228.935 222.53 227.284 223.404 225.553 224.195C211.948 230.609 196.922 233.889 181.941 234.47L170.721 234.161C166.975 234.068 163.305 233.355 159.632 232.806C152.269 231.822 145.169 229.695 138.188 227.342C134.687 226.304 131.359 224.696 128.031 223.088C124.736 221.497 121.491 219.809 118.295 218.105C112.075 214.208 106.159 209.809 100.759 204.813C108.372 204.525 115.348 205.225 122.228 205.792C125.711 205.913 129.111 206.114 132.477 206.381C135.844 206.647 139.126 207.076 142.496 207.096C145.816 207.215 149.102 207.398 152.337 207.678C155.588 208.008 158.815 207.83 162.052 207.947C168.509 208.377 174.847 208.003 181.21 208.137C193.884 207.634 206.434 206.655 219.199 204.55C232.028 202.478 244.855 199.621 258.966 195.245L258.998 195.262Z" fill="currentColor"/>
</g>
</svg>
